<svg width="25" height="29" viewBox="0 0 25 29" fill="none" xmlns="http://www.w3.org/2000/svg">
<path d="M11 17.6654V20.332C8.87825 20.332 6.84342 21.1749 5.34313 22.6752C3.84283 24.1755 2.99998 26.2103 2.99998 28.332H0.333313C0.333313 25.5031 1.45712 22.7899 3.45751 20.7896C5.4579 18.7892 8.171 17.6654 11 17.6654ZM11 16.332C6.57998 16.332 2.99998 12.752 2.99998 8.33203C2.99998 3.91203 6.57998 0.332031 11 0.332031C15.42 0.332031 19 3.91203 19 8.33203C19 12.752 15.42 16.332 11 16.332ZM11 13.6654C13.9466 13.6654 16.3333 11.2787 16.3333 8.33203C16.3333 5.38536 13.9466 2.9987 11 2.9987C8.05331 2.9987 5.66665 5.38536 5.66665 8.33203C5.66665 11.2787 8.05331 13.6654 11 13.6654ZM14.46 24.0814C14.2909 23.3699 14.2909 22.6288 14.46 21.9174L13.1373 21.1534L14.4706 18.844L15.7933 19.608C16.3242 19.1052 16.9659 18.7343 17.6666 18.5254V16.9987H20.3333V18.5254C21.0426 18.736 21.6826 19.112 22.2066 19.608L23.5293 18.844L24.8626 21.1534L23.54 21.9174C23.7088 22.6284 23.7088 23.369 23.54 24.08L24.8626 24.844L23.5293 27.1534L22.2066 26.3894C21.6758 26.8922 21.034 27.2631 20.3333 27.472V28.9987H17.6666V27.472C16.9659 27.2631 16.3242 26.8922 15.7933 26.3894L14.4706 27.1534L13.1373 24.844L14.46 24.0814ZM19 24.9987C19.5304 24.9987 20.0391 24.788 20.4142 24.4129C20.7893 24.0378 21 23.5291 21 22.9987C21 22.4683 20.7893 21.9596 20.4142 21.5845C20.0391 21.2094 19.5304 20.9987 19 20.9987C18.4695 20.9987 17.9608 21.2094 17.5858 21.5845C17.2107 21.9596 17 22.4683 17 22.9987C17 23.5291 17.2107 24.0378 17.5858 24.4129C17.9608 24.788 18.4695 24.9987 19 24.9987Z" fill="#98A2B3"/>
</svg>
