<svg width="32" height="32" viewBox="0 0 32 32" fill="none" xmlns="http://www.w3.org/2000/svg">
<g clip-path="url(#clip0_3704_12428)">
<path d="M16 18.6654V21.332C13.8782 21.332 11.8434 22.1749 10.3431 23.6752C8.84283 25.1755 7.99998 27.2103 7.99998 29.332H5.33331C5.33331 26.5031 6.45712 23.7899 8.45751 21.7896C10.4579 19.7892 13.171 18.6654 16 18.6654ZM16 17.332C11.58 17.332 7.99998 13.752 7.99998 9.33203C7.99998 4.91203 11.58 1.33203 16 1.33203C20.42 1.33203 24 4.91203 24 9.33203C24 13.752 20.42 17.332 16 17.332ZM16 14.6654C18.9466 14.6654 21.3333 12.2787 21.3333 9.33203C21.3333 6.38536 18.9466 3.9987 16 3.9987C13.0533 3.9987 10.6666 6.38536 10.6666 9.33203C10.6666 12.2787 13.0533 14.6654 16 14.6654ZM19.46 25.0814C19.2909 24.3699 19.2909 23.6288 19.46 22.9174L18.1373 22.1534L19.4706 19.844L20.7933 20.608C21.3242 20.1052 21.9659 19.7343 22.6666 19.5254V17.9987H25.3333V19.5254C26.0426 19.736 26.6826 20.112 27.2066 20.608L28.5293 19.844L29.8626 22.1534L28.54 22.9174C28.7088 23.6284 28.7088 24.369 28.54 25.08L29.8626 25.844L28.5293 28.1534L27.2066 27.3894C26.6758 27.8922 26.034 28.2631 25.3333 28.472V29.9987H22.6666V28.472C21.9659 28.2631 21.3242 27.8922 20.7933 27.3894L19.4706 28.1534L18.1373 25.844L19.46 25.0814ZM24 25.9987C24.5304 25.9987 25.0391 25.788 25.4142 25.4129C25.7893 25.0378 26 24.5291 26 23.9987C26 23.4683 25.7893 22.9596 25.4142 22.5845C25.0391 22.2094 24.5304 21.9987 24 21.9987C23.4695 21.9987 22.9608 22.2094 22.5858 22.5845C22.2107 22.9596 22 23.4683 22 23.9987C22 24.5291 22.2107 25.0378 22.5858 25.4129C22.9608 25.788 23.4695 25.9987 24 25.9987Z" fill="#98A2B3"/>
</g>
<defs>
<clipPath id="clip0_3704_12428">
<rect width="32" height="32" fill="white"/>
</clipPath>
</defs>
</svg>
