<svg width="25" height="29" viewBox="0 0 25 29" fill="none" xmlns="http://www.w3.org/2000/svg">
<path d="M11 17.6654V28.332H0.333313C0.333313 25.5031 1.45712 22.7899 3.45751 20.7896C5.4579 18.7892 8.171 17.6654 11 17.6654ZM11 16.332C6.57998 16.332 2.99998 12.752 2.99998 8.33203C2.99998 3.91203 6.57998 0.332031 11 0.332031C15.42 0.332031 19 3.91203 19 8.33203C19 12.752 15.42 16.332 11 16.332ZM14.46 24.0814C14.2909 23.3699 14.2909 22.6288 14.46 21.9174L13.1373 21.1534L14.4706 18.844L15.7933 19.608C16.3242 19.1052 16.9659 18.7343 17.6666 18.5254V16.9987H20.3333V18.5254C21.0426 18.736 21.6826 19.112 22.2066 19.608L23.5293 18.844L24.8626 21.1534L23.54 21.9174C23.7088 22.6284 23.7088 23.369 23.54 24.08L24.8626 24.844L23.5293 27.1534L22.2066 26.3894C21.6758 26.8922 21.034 27.2631 20.3333 27.472V28.9987H17.6666V27.472C16.9659 27.2631 16.3242 26.8922 15.7933 26.3894L14.4706 27.1534L13.1373 24.844L14.46 24.0814ZM19 21.6654C18.6464 21.6654 18.3072 21.8058 18.0572 22.0559C17.8071 22.3059 17.6666 22.6451 17.6666 22.9987C17.6666 23.3523 17.8071 23.6915 18.0572 23.9415C18.3072 24.1916 18.6464 24.332 19 24.332C19.3536 24.332 19.6927 24.1916 19.9428 23.9415C20.1928 23.6915 20.3333 23.3523 20.3333 22.9987C20.3333 22.6451 20.1928 22.3059 19.9428 22.0559C19.6927 21.8058 19.3536 21.6654 19 21.6654Z" fill="#7E00C4"/>
</svg>
