<svg width="30" height="26" viewBox="0 0 30 26" fill="none" xmlns="http://www.w3.org/2000/svg">
<path d="M3.21466 2.95693C4.76141 1.4099 6.83599 0.505048 9.02212 0.423934C11.2083 0.342819 13.3442 1.09145 15.0013 2.5196C16.657 1.09383 18.7901 0.346041 20.9736 0.425949C23.1571 0.505857 25.2299 1.40756 26.7769 2.95054C28.3239 4.49352 29.231 6.5639 29.3167 8.74719C29.4023 10.9305 28.6601 13.0655 27.2387 14.7249L16.8853 25.1116C16.4097 25.5874 15.7717 25.8659 15.0994 25.8911C14.427 25.9163 13.77 25.6865 13.26 25.2476L13.1133 25.1129L2.76133 14.7249C1.34065 13.067 0.598102 10.9339 0.682149 8.75211C0.766196 6.57034 1.67064 4.50069 3.21466 2.95693ZM5.1 4.84227C4.00965 5.93291 3.38113 7.40152 3.34489 8.94329C3.30864 10.4851 3.86744 11.9816 4.90533 13.1223L5.1 13.3276L15 23.2276L22.0707 16.1556L17.3573 11.4423L15.944 12.8556C15.5726 13.2272 15.1317 13.5219 14.6464 13.7231C14.1611 13.9242 13.6409 14.0278 13.1156 14.0279C12.0546 14.0282 11.037 13.607 10.2867 12.8569C9.53628 12.1069 9.11457 11.0895 9.11432 10.0285C9.11407 8.96759 9.5353 7.94999 10.2853 7.1996L13.088 4.3956C11.9726 3.50543 10.5765 3.04185 9.15024 3.08804C7.72395 3.13422 6.36078 3.68714 5.30533 4.6476L5.1 4.84227ZM16.4147 8.61293C16.6647 8.36297 17.0038 8.22255 17.3573 8.22255C17.7109 8.22255 18.05 8.36297 18.3 8.61293L23.956 14.2689L24.9 13.3276C26.0086 12.2198 26.6397 10.7222 26.6584 9.15501C26.6771 7.58787 26.0819 6.07562 25 4.94167C23.9182 3.80772 22.4355 3.14209 20.8693 3.08714C19.303 3.03218 17.7773 3.59226 16.6187 4.6476L16.4147 4.84227L12.172 9.08493C11.9409 9.31589 11.8026 9.62366 11.7835 9.94982C11.7643 10.276 11.8655 10.5978 12.068 10.8543L12.172 10.9703C12.4029 11.2014 12.7107 11.3396 13.0369 11.3588C13.363 11.378 13.6849 11.2767 13.9413 11.0743L14.0573 10.9703L16.4147 8.61293Z" fill="#98A2B3"/>
</svg>
