<svg width="30" height="26" viewBox="0 0 30 26" fill="none" xmlns="http://www.w3.org/2000/svg">
<path d="M17.828 10.9732C17.5779 10.7232 17.2389 10.5828 16.8853 10.5828C16.5318 10.5828 16.1927 10.7232 15.9427 10.9732L15 11.9145C14.754 12.1692 14.4597 12.3723 14.1344 12.5121C13.8091 12.6519 13.4591 12.7254 13.1051 12.7285C12.751 12.7316 12.3998 12.6641 12.0721 12.53C11.7444 12.3959 11.4466 12.1979 11.1963 11.9475C10.9459 11.6972 10.7479 11.3994 10.6138 11.0717C10.4797 10.744 10.4122 10.3928 10.4153 10.0388C10.4184 9.68467 10.492 9.33475 10.6317 9.00941C10.7715 8.68407 10.9746 8.38981 11.2293 8.14382L18.736 0.634489C20.5132 0.230257 22.3727 0.39662 24.0499 1.10992C25.7272 1.82322 27.1368 3.04715 28.0785 4.60768C29.0202 6.1682 29.4459 7.98588 29.2951 9.80226C29.1443 11.6186 28.4247 13.3413 27.2387 14.7252L24.428 17.5718L17.828 10.9718V10.9732ZM3.21465 2.95716C4.59433 1.57766 6.39895 0.703794 8.33673 0.476844C10.2745 0.249893 12.2322 0.683122 13.8933 1.70649L9.34265 6.25849C8.35705 7.24213 7.79523 8.57222 7.77724 9.96457C7.75924 11.3569 8.28651 12.7011 9.24636 13.7099C10.2062 14.7186 11.5225 15.312 12.9141 15.3632C14.3056 15.4144 15.6619 14.9193 16.6933 13.9838L16.8853 13.8012L22.5427 19.4572L16.8853 25.1145C16.3852 25.6144 15.7071 25.8953 15 25.8953C14.2929 25.8953 13.6147 25.6144 13.1147 25.1145L3.21332 15.2132C1.58816 13.5879 0.675171 11.3836 0.675171 9.08516C0.675171 6.78674 1.58816 4.58245 3.21332 2.95716H3.21465Z" fill="#7E00C4"/>
</svg>
