<svg width="24" height="30" viewBox="0 0 24 30" fill="none" xmlns="http://www.w3.org/2000/svg">
<path d="M12 0.333252L22.956 2.76792C23.5653 2.90392 24 3.44392 24 4.06925V17.3853C24 20.0599 22.6627 22.5586 20.4373 24.0413L12 29.6666L3.56267 24.0413C1.336 22.5573 0 20.0599 0 17.3866V4.06925C0 3.44392 0.434667 2.90392 1.044 2.76792L12 0.333252ZM12 3.06525L2.66667 5.13859V17.3853C2.66667 19.1679 3.55733 20.8333 5.04133 21.8226L12 26.4626L18.9587 21.8226C20.4427 20.8333 21.3333 19.1693 21.3333 17.3866V5.13859L12 3.06659V3.06525ZM17.936 9.96259L19.8227 11.8479L11.3373 20.3333L5.68 14.6759L7.56533 12.7906L11.336 16.5613L17.936 9.96125V9.96259Z" fill="#828282"/>
</svg>
