<svg width="24" height="30" viewBox="0 0 24 30" fill="none" xmlns="http://www.w3.org/2000/svg">
<path d="M12 0.333984L22.956 2.76865C23.5653 2.90465 24 3.44465 24 4.06998V17.386C24 20.0607 22.6627 22.5593 20.4373 24.042L12 29.6673L3.56267 24.042C1.336 22.558 0 20.0607 0 17.3873V4.06998C0 3.44465 0.434667 2.90465 1.044 2.76865L12 0.333984ZM12 3.06598L2.66667 5.13932V17.386C2.66667 19.1687 3.55733 20.834 5.04133 21.8233L12 26.4633L18.9587 21.8233C20.4427 20.834 21.3333 19.17 21.3333 17.3873V5.13932L12 3.06732V3.06598ZM17.936 9.96332L19.8227 11.8487L11.3373 20.334L5.68 14.6767L7.56533 12.7913L11.336 16.562L17.936 9.96198V9.96332Z" fill="#98A2B3"/>
</svg>
