<svg width="32" height="32" viewBox="0 0 32 32" fill="none" xmlns="http://www.w3.org/2000/svg">
<g clip-path="url(#clip0_3704_15676)">
<path d="M2.66669 15.9991C2.66669 14.8458 2.81335 13.7284 3.08802 12.6604C3.82464 12.6992 4.55762 12.5334 5.20594 12.1816C5.85426 11.8298 6.39266 11.3055 6.76163 10.6668C7.1306 10.028 7.31576 9.29972 7.29665 8.56233C7.27754 7.82494 7.05491 7.1072 6.65335 6.48844C8.26528 4.90253 10.2544 3.7531 12.4334 3.14844C12.768 3.8064 13.2782 4.35893 13.9075 4.74485C14.5367 5.13078 15.2605 5.33504 15.9987 5.33504C16.7369 5.33504 17.4606 5.13078 18.0899 4.74485C18.7192 4.35893 19.2294 3.8064 19.564 3.14844C21.743 3.7531 23.7321 4.90253 25.344 6.48844C24.942 7.10731 24.719 7.82533 24.6998 8.56306C24.6805 9.30078 24.8658 10.0295 25.2349 10.6685C25.6041 11.3075 26.1429 11.8319 26.7916 12.1837C27.4403 12.5355 28.1737 12.7009 28.9107 12.6618C29.1854 13.7284 29.332 14.8458 29.332 15.9991C29.332 17.1524 29.1854 18.2698 28.9107 19.3378C28.174 19.2988 27.4408 19.4643 26.7923 19.8161C26.1438 20.1678 25.6052 20.692 25.236 21.3308C24.8669 21.9696 24.6816 22.698 24.7007 23.4355C24.7197 24.173 24.9424 24.8909 25.344 25.5098C23.7321 27.0957 21.743 28.2451 19.564 28.8498C19.2294 28.1918 18.7192 27.6393 18.0899 27.2534C17.4606 26.8674 16.7369 26.6632 15.9987 26.6632C15.2605 26.6632 14.5367 26.8674 13.9075 27.2534C13.2782 27.6393 12.768 28.1918 12.4334 28.8498C10.2544 28.2451 8.26528 27.0957 6.65335 25.5098C7.05536 24.8909 7.27833 24.1729 7.29758 23.4352C7.31683 22.6974 7.13162 21.9688 6.76244 21.3298C6.39325 20.6908 5.85449 20.1663 5.20576 19.8145C4.55703 19.4627 3.82363 19.2973 3.08669 19.3364C2.81335 18.2711 2.66669 17.1538 2.66669 15.9991ZM9.07202 19.9991C9.91202 21.4538 10.152 23.1271 9.82402 24.6978C10.368 25.0844 10.9467 25.4191 11.5534 25.6978C12.7756 24.6029 14.3591 23.998 16 23.9991C17.68 23.9991 19.2507 24.6271 20.4467 25.6978C21.0534 25.4191 21.632 25.0844 22.176 24.6978C21.8393 23.0924 22.1071 21.4192 22.928 19.9991C23.7475 18.5783 25.0627 17.51 26.6214 16.9991C26.683 16.3339 26.683 15.6643 26.6214 14.9991C25.0622 14.4885 23.7465 13.4202 22.9267 11.9991C22.1057 10.579 21.8379 8.90582 22.1747 7.30044C21.6308 6.91367 21.0519 6.57886 20.4454 6.30044C19.2235 7.39501 17.6405 7.99992 16 7.9991C14.3591 8.00024 12.7756 7.39532 11.5534 6.30044C10.9469 6.57887 10.3679 6.91367 9.82402 7.30044C10.1608 8.90582 9.89299 10.579 9.07202 11.9991C8.25252 13.4199 6.93733 14.4882 5.37869 14.9991C5.31702 15.6643 5.31702 16.3339 5.37869 16.9991C6.93783 17.5097 8.25353 18.578 9.07335 19.9991H9.07202ZM16 19.9991C14.9392 19.9991 13.9217 19.5777 13.1716 18.8275C12.4214 18.0774 12 17.06 12 15.9991C12 14.9382 12.4214 13.9208 13.1716 13.1707C13.9217 12.4205 14.9392 11.9991 16 11.9991C17.0609 11.9991 18.0783 12.4205 18.8284 13.1707C19.5786 13.9208 20 14.9382 20 15.9991C20 17.06 19.5786 18.0774 18.8284 18.8275C18.0783 19.5777 17.0609 19.9991 16 19.9991ZM16 17.3324C16.3536 17.3324 16.6928 17.192 16.9428 16.9419C17.1929 16.6919 17.3334 16.3527 17.3334 15.9991C17.3334 15.6455 17.1929 15.3063 16.9428 15.0563C16.6928 14.8062 16.3536 14.6658 16 14.6658C15.6464 14.6658 15.3073 14.8062 15.0572 15.0563C14.8072 15.3063 14.6667 15.6455 14.6667 15.9991C14.6667 16.3527 14.8072 16.6919 15.0572 16.9419C15.3073 17.192 15.6464 17.3324 16 17.3324Z" fill="#98A2B3"/>
</g>
<defs>
<clipPath id="clip0_3704_15676">
<rect width="32" height="32" fill="white"/>
</clipPath>
</defs>
</svg>
