<svg width="28" height="26" viewBox="0 0 28 26" fill="none" xmlns="http://www.w3.org/2000/svg">
<path d="M5.11202 3.05879C6.481 1.8325 8.08894 0.902781 9.83469 0.328125C10.3339 0.95349 10.9676 1.4583 11.6887 1.80502C12.4099 2.15173 13.1999 2.33145 14 2.33079C14.8002 2.33145 15.5902 2.15173 16.3113 1.80502C17.0325 1.4583 17.6662 0.95349 18.1654 0.328125C19.9111 0.902781 21.5191 1.8325 22.888 3.05879C22.5967 3.80339 22.4768 4.60404 22.5373 5.40131C22.5978 6.19858 22.8371 6.97199 23.2374 7.66412C23.6368 8.35758 24.1875 8.95206 24.8484 9.40335C25.5093 9.85465 26.2634 10.1511 27.0547 10.2708C27.4288 12.0693 27.4288 13.9256 27.0547 15.7241C25.508 15.9615 24.0814 16.8708 23.2374 18.3308C22.8368 19.0231 22.5975 19.7967 22.537 20.5943C22.4765 21.3918 22.5965 22.1927 22.888 22.9375C21.5189 24.1633 19.911 25.0925 18.1654 25.6668C17.6661 25.0417 17.0323 24.5371 16.3112 24.1906C15.59 23.8442 14.8001 23.6646 14 23.6655C13.1999 23.6648 12.4099 23.8445 11.6887 24.1912C10.9676 24.538 10.3339 25.0428 9.83469 25.6681C8.08905 25.0939 6.48112 24.1646 5.11202 22.9388C5.40356 22.194 5.52354 21.3931 5.46307 20.5956C5.40259 19.7981 5.1632 19.0244 4.76269 18.3321C4.36308 17.6389 3.81236 17.0447 3.15147 16.5936C2.49058 16.1426 1.73652 15.8463 0.945358 15.7268C0.571111 13.9278 0.571111 12.0711 0.945358 10.2721C1.73665 10.1525 2.49078 9.85598 3.15167 9.40469C3.81257 8.95339 4.36323 8.35891 4.76269 7.66546C5.163 6.97332 5.40227 6.19991 5.46275 5.40265C5.52322 4.60538 5.40335 3.80472 5.11202 3.06013V3.05879ZM16 16.4615C16.4586 16.2007 16.8611 15.8519 17.1843 15.435C17.5075 15.018 17.745 14.5413 17.8833 14.0322C18.0215 13.5231 18.0576 12.9917 17.9896 12.4686C17.9216 11.9455 17.7508 11.441 17.4871 10.9841C17.2233 10.5273 16.8718 10.1271 16.4527 9.80672C16.0337 9.48628 15.5554 9.2519 15.0454 9.11706C14.5354 8.98223 14.0038 8.9496 13.4811 9.02107C12.9585 9.09253 12.4551 9.26667 12 9.53346C11.0888 10.0677 10.4259 10.9406 10.1559 11.9618C9.88589 12.983 10.0308 14.0695 10.5589 14.9842C11.0871 15.899 11.9556 16.5677 12.975 16.8445C13.9943 17.1212 15.0818 16.9835 16 16.4615Z" fill="#7E00C4"/>
</svg>
