<svg width="28" height="26" viewBox="0 0 28 26" fill="none" xmlns="http://www.w3.org/2000/svg">
<path d="M0.666687 12.9991C0.666687 11.8458 0.813354 10.7284 1.08802 9.66044C1.82464 9.69916 2.55762 9.53344 3.20594 9.18159C3.85426 8.82975 4.39266 8.30549 4.76163 7.66676C5.1306 7.02804 5.31576 6.29972 5.29665 5.56233C5.27754 4.82494 5.05491 4.1072 4.65335 3.48844C6.26528 1.90253 8.25441 0.753098 10.4334 0.148438C10.768 0.806401 11.2782 1.35893 11.9075 1.74485C12.5367 2.13078 13.2605 2.33504 13.9987 2.33504C14.7369 2.33504 15.4606 2.13078 16.0899 1.74485C16.7192 1.35893 17.2294 0.806401 17.564 0.148438C19.743 0.753098 21.7321 1.90253 23.344 3.48844C22.942 4.10731 22.719 4.82533 22.6998 5.56306C22.6805 6.30078 22.8658 7.02946 23.2349 7.66845C23.6041 8.30745 24.1429 8.83186 24.7916 9.18366C25.4403 9.53546 26.1737 9.70093 26.9107 9.66177C27.1854 10.7284 27.332 11.8458 27.332 12.9991C27.332 14.1524 27.1854 15.2698 26.9107 16.3378C26.174 16.2988 25.4408 16.4643 24.7923 16.8161C24.1438 17.1678 23.6052 17.692 23.236 18.3308C22.8669 18.9696 22.6816 19.698 22.7007 20.4355C22.7197 21.173 22.9424 21.8909 23.344 22.5098C21.7321 24.0957 19.743 25.2451 17.564 25.8498C17.2294 25.1918 16.7192 24.6393 16.0899 24.2534C15.4606 23.8674 14.7369 23.6632 13.9987 23.6632C13.2605 23.6632 12.5367 23.8674 11.9075 24.2534C11.2782 24.6393 10.768 25.1918 10.4334 25.8498C8.25441 25.2451 6.26528 24.0957 4.65335 22.5098C5.05536 21.8909 5.27833 21.1729 5.29758 20.4352C5.31683 19.6974 5.13162 18.9688 4.76244 18.3298C4.39325 17.6908 3.85449 17.1663 3.20576 16.8145C2.55703 16.4627 1.82363 16.2973 1.08669 16.3364C0.813354 15.2711 0.666687 14.1538 0.666687 12.9991ZM7.07202 16.9991C7.91202 18.4538 8.15202 20.1271 7.82402 21.6978C8.36802 22.0844 8.94669 22.4191 9.55335 22.6978C10.7756 21.6029 12.3591 20.998 14 20.9991C15.68 20.9991 17.2507 21.6271 18.4467 22.6978C19.0534 22.4191 19.632 22.0844 20.176 21.6978C19.8393 20.0924 20.1071 18.4192 20.928 16.9991C21.7475 15.5783 23.0627 14.51 24.6214 13.9991C24.683 13.3339 24.683 12.6643 24.6214 11.9991C23.0622 11.4885 21.7465 10.4202 20.9267 8.9991C20.1057 7.57901 19.8379 5.90582 20.1747 4.30044C19.6308 3.91367 19.0519 3.57886 18.4454 3.30044C17.2235 4.39501 15.6405 4.99992 14 4.9991C12.3591 5.00024 10.7756 4.39532 9.55335 3.30044C8.94686 3.57887 8.36787 3.91367 7.82402 4.30044C8.16077 5.90582 7.89299 7.57901 7.07202 8.9991C6.25252 10.4199 4.93733 11.4882 3.37869 11.9991C3.31702 12.6643 3.31702 13.3339 3.37869 13.9991C4.93783 14.5097 6.25353 15.578 7.07335 16.9991H7.07202ZM14 16.9991C12.9392 16.9991 11.9217 16.5777 11.1716 15.8275C10.4214 15.0774 10 14.06 10 12.9991C10 11.9382 10.4214 10.9208 11.1716 10.1707C11.9217 9.42053 12.9392 8.9991 14 8.9991C15.0609 8.9991 16.0783 9.42053 16.8284 10.1707C17.5786 10.9208 18 11.9382 18 12.9991C18 14.06 17.5786 15.0774 16.8284 15.8275C16.0783 16.5777 15.0609 16.9991 14 16.9991ZM14 14.3324C14.3536 14.3324 14.6928 14.192 14.9428 13.9419C15.1929 13.6919 15.3334 13.3527 15.3334 12.9991C15.3334 12.6455 15.1929 12.3063 14.9428 12.0563C14.6928 11.8062 14.3536 11.6658 14 11.6658C13.6464 11.6658 13.3073 11.8062 13.0572 12.0563C12.8072 12.3063 12.6667 12.6455 12.6667 12.9991C12.6667 13.3527 12.8072 13.6919 13.0572 13.9419C13.3073 14.192 13.6464 14.3324 14 14.3324Z" fill="#98A2B3"/>
</svg>
