<svg width="30" height="26" viewBox="0 0 30 26" fill="none" xmlns="http://www.w3.org/2000/svg">
<path d="M17.828 10.9734C17.578 10.7234 17.2389 10.583 16.8853 10.583C16.5318 10.583 16.1927 10.7234 15.9427 10.9734L15 11.9147C14.754 12.1694 14.4598 12.3726 14.1344 12.5123C13.8091 12.6521 13.4591 12.7257 13.1051 12.7287C12.751 12.7318 12.3998 12.6643 12.0721 12.5303C11.7444 12.3962 11.4467 12.1982 11.1963 11.9478C10.9459 11.6974 10.7479 11.3997 10.6138 11.0719C10.4797 10.7442 10.4123 10.3931 10.4153 10.039C10.4184 9.68492 10.492 9.335 10.6317 9.00965C10.7715 8.68431 10.9746 8.39006 11.2293 8.14407L18.736 0.634733C20.5132 0.230501 22.3727 0.396864 24.0499 1.11017C25.7272 1.82347 27.1369 3.0474 28.0785 4.60792C29.0202 6.16845 29.4459 7.98613 29.2951 9.80251C29.1443 11.6189 28.4247 13.3415 27.2387 14.7254L24.428 17.5721L17.828 10.9721V10.9734ZM3.21467 2.9574C4.59435 1.5779 6.39896 0.704038 8.33675 0.477088C10.2745 0.250137 12.2322 0.683366 13.8933 1.70673L9.34267 6.25873C8.35707 7.24237 7.79525 8.57247 7.77725 9.96481C7.75926 11.3572 8.28652 12.7013 9.24637 13.7101C10.2062 14.7189 11.5225 15.3123 12.9141 15.3635C14.3056 15.4146 15.662 14.9196 16.6933 13.9841L16.8853 13.8014L22.5427 19.4574L16.8853 25.1147C16.3853 25.6147 15.7071 25.8955 15 25.8955C14.2929 25.8955 13.6147 25.6147 13.1147 25.1147L3.21334 15.2134C1.58818 13.5881 0.675186 11.3838 0.675186 9.0854C0.675186 6.78698 1.58818 4.58269 3.21334 2.9574H3.21467Z" fill="black"/>
</svg>
