<svg width="55" height="55" viewBox="0 0 55 55" fill="none" xmlns="http://www.w3.org/2000/svg">
<circle cx="27.5" cy="27.5" r="27.5" fill="#55C4F1" fill-opacity="0.2"/>
<path d="M19.1626 17H35.4388C35.7471 17 36.0428 17.1225 36.2609 17.3405C36.4789 17.5585 36.6014 17.8542 36.6014 18.1626V40.418C36.6015 40.5219 36.5738 40.624 36.521 40.7136C36.4683 40.8031 36.3925 40.8769 36.3016 40.9273C36.2107 40.9776 36.1079 41.0027 36.004 40.9998C35.9001 40.9969 35.7989 40.9662 35.7108 40.9109L27.3007 35.6363L18.8905 40.9097C18.8026 40.965 18.7015 40.9957 18.5977 40.9986C18.4939 41.0015 18.3912 40.9766 18.3003 40.9264C18.2094 40.8762 18.1336 40.8026 18.0808 40.7132C18.028 40.6237 18.0001 40.5218 18 40.418V18.1626C18 17.8542 18.1225 17.5585 18.3405 17.3405C18.5585 17.1225 18.8542 17 19.1626 17ZM34.2762 19.3252H20.3252V37.2662L27.3007 32.8937L34.2762 37.2662V19.3252Z" fill="#55C4F1"/>
</svg>
