<svg width="26" height="29" viewBox="0 0 26 29" fill="none" xmlns="http://www.w3.org/2000/svg">
<path d="M13.6667 18.0026V28.3333H0.333344C0.33293 26.7051 0.705239 25.0985 1.42174 23.6364C2.13825 22.1744 3.17993 20.8958 4.46697 19.8986C5.75401 18.9014 7.25225 18.2121 8.84688 17.8834C10.4415 17.5548 12.0902 17.5955 13.6667 18.0026ZM11 16.3333C6.58001 16.3333 3.00001 12.7533 3.00001 8.33325C3.00001 3.91325 6.58001 0.333252 11 0.333252C15.42 0.333252 19 3.91325 19 8.33325C19 12.7533 15.42 16.3333 11 16.3333ZM21.6667 21.6666H25.6667V24.3333H21.6667V28.9999L15 22.9999L21.6667 16.9999V21.6666Z" fill="black"/>
</svg>
