<svg width="55" height="55" viewBox="0 0 55 55" fill="none" xmlns="http://www.w3.org/2000/svg">
<circle cx="27.5" cy="27.5" r="27.5" fill="#00CCCD" fill-opacity="0.2"/>
<g clip-path="url(#clip0_3413_31330)">
<path d="M41.3333 21.3333H42.6666V34.6667H41.3333V38.6667C41.3333 39.0203 41.1928 39.3594 40.9428 39.6095C40.6927 39.8595 40.3536 40 40 40H16C15.6463 40 15.3072 39.8595 15.0572 39.6095C14.8071 39.3594 14.6666 39.0203 14.6666 38.6667V17.3333C14.6666 16.9797 14.8071 16.6406 15.0572 16.3905C15.3072 16.1405 15.6463 16 16 16H40C40.3536 16 40.6927 16.1405 40.9428 16.3905C41.1928 16.6406 41.3333 16.9797 41.3333 17.3333V21.3333ZM38.6666 34.6667H30.6666C28.8985 34.6667 27.2028 33.9643 25.9526 32.714C24.7023 31.4638 24 29.7681 24 28C24 26.2319 24.7023 24.5362 25.9526 23.286C27.2028 22.0357 28.8985 21.3333 30.6666 21.3333H38.6666V18.6667H17.3333V37.3333H38.6666V34.6667ZM40 32V24H30.6666C29.6058 24 28.5883 24.4214 27.8382 25.1716C27.0881 25.9217 26.6666 26.9391 26.6666 28C26.6666 29.0609 27.0881 30.0783 27.8382 30.8284C28.5883 31.5786 29.6058 32 30.6666 32H40ZM30.6666 26.6667H34.6666V29.3333H30.6666V26.6667Z" fill="#00CCCD"/>
</g>
<defs>
<clipPath id="clip0_3413_31330">
<rect width="32" height="32" fill="white" transform="translate(12 12)"/>
</clipPath>
</defs>
</svg>
