<svg width="25" height="24" viewBox="0 0 25 24" fill="none" xmlns="http://www.w3.org/2000/svg">
<g clip-path="url(#clip0_7289_75245)">
<path d="M6.33342 15L1.87842 18.5V3C1.87842 2.73478 1.98377 2.48043 2.17131 2.29289C2.35885 2.10536 2.6132 2 2.87842 2H17.8784C18.1436 2 18.398 2.10536 18.5855 2.29289C18.7731 2.48043 18.8784 2.73478 18.8784 3V15H6.33342ZM5.64142 13H16.8784V4H3.87842V14.385L5.64142 13ZM8.87842 17H19.1154L20.8784 18.385V8H21.8784C22.1436 8 22.398 8.10536 22.5855 8.29289C22.7731 8.48043 22.8784 8.73478 22.8784 9V22.5L18.4234 19H9.87842C9.6132 19 9.35885 18.8946 9.17131 18.7071C8.98378 18.5196 8.87842 18.2652 8.87842 18V17Z" fill="#7607BD"/>
</g>
<defs>
<clipPath id="clip0_7289_75245">
<rect width="24" height="24" fill="white" transform="translate(0.878418)"/>
</clipPath>
</defs>
</svg>
