<svg width="200" height="34" viewBox="0 0 200 34" fill="none" xmlns="http://www.w3.org/2000/svg">
<path d="M21.8709 8.20512V25.3636H28.8271V18.3361C28.8271 15.2326 28.8984 14.6262 29.6832 13.8057C30.4323 13.0209 31.4668 12.7712 33.7856 12.7712C36.14 12.7712 37.1031 12.9496 37.7809 13.6274C38.4587 14.2695 38.4943 14.6975 38.4943 17.4087V25.3636H45.4505V17.4087C45.4505 12.7712 45.0581 11.3086 43.5242 9.70337C42.0259 8.16945 39.7429 7.52734 35.6762 7.52734C31.5739 7.52734 29.3978 8.41916 28.3277 10.5238H28.4703V7.95542H21.8709V8.20512Z" fill="white"/>
<path d="M21.8676 8.20866V25.3672H28.8238V18.3397C28.8238 15.2362 28.8951 14.6297 29.6799 13.8093C30.429 13.0245 31.4635 12.7748 33.7823 12.7748C36.1367 12.7748 37.0998 12.9531 37.7776 13.6309C38.4554 14.273 38.4911 14.7011 38.4911 17.4122V25.3672H45.4472V17.4122C45.4472 12.7748 45.0548 11.3122 43.5209 9.70691C42.0226 8.17299 39.7396 7.53088 35.6729 7.53088C31.5706 7.53088 29.3945 8.4227 28.3244 10.5274H28.467V7.95895H21.8676V8.20866Z" stroke="white" stroke-width="0.4324" stroke-miterlimit="2.61313" stroke-linecap="round" stroke-linejoin="round"/>
<path d="M45.3388 8.20674L53.0084 25.3653H55.3271C54.3996 27.7197 54.0786 28.0407 51.9382 28.005C50.9037 28.005 50.868 28.005 50.1902 28.0764V32.8565C50.9394 32.9635 51.9025 32.9992 53.2581 32.9992C55.4341 32.9992 57.0394 32.6425 58.0739 32.0004C59.1441 31.3583 59.3224 30.9659 61.0704 27.2916L70.2382 7.95703H62.5686L57.1107 20.5138H57.7172L52.7943 7.95703H45.2318L45.3388 8.20674Z" fill="white"/>
<path d="M45.3404 8.20754L53.01 25.3661H55.3287C54.4013 27.7205 54.0802 28.0415 51.9398 28.0058C50.9053 28.0058 50.8697 28.0058 50.1919 28.0772V32.8573C50.941 32.9643 51.9042 33 53.2597 33C55.4358 33 57.041 32.6433 58.0755 32.0012C59.1457 31.3591 59.3241 30.9667 61.072 27.2924L70.2399 7.95783H62.5703L57.1124 20.5146H57.7188L52.796 7.95783H45.2334L45.3404 8.20754Z" stroke="white" stroke-width="0.4324" stroke-miterlimit="2.61313" stroke-linecap="round" stroke-linejoin="round"/>
<path d="M68.7272 8.20674L75.0769 25.3653H83.9594L87.4553 15.1629H86.8132L90.2378 25.3653H99.2986L105.755 7.95703H98.3711L94.3401 20.2998H94.9466L90.3091 7.95703H83.8881L79.2863 20.5138H79.8927L75.9687 7.95703H68.6202L68.7272 8.20674Z" fill="white"/>
<path d="M68.7238 8.20866L75.0736 25.3672H83.956L87.452 15.1648H86.8099L90.2344 25.3672H99.2953L105.752 7.95896H98.3678L94.3368 20.3017H94.9432L90.3058 7.95896H83.8847L79.2829 20.5157H79.8894L75.9654 7.95896H68.6168L68.7238 8.20866Z" stroke="white" stroke-width="0.4324" stroke-miterlimit="2.61313" stroke-linecap="round" stroke-linejoin="round"/>
<path d="M117.913 7.52734C112.169 7.52734 109.423 7.99109 107.853 9.13261C106.176 10.3455 105.606 12.1291 105.606 16.0888C105.606 21.0116 106.069 22.7595 107.639 24.0438C109.244 25.3636 111.634 25.7917 117.948 25.7917C124.227 25.7917 126.546 25.3636 128.151 24.0438C129.685 22.7595 130.184 21.0116 130.184 16.3385C130.184 12.0934 129.649 10.3812 127.937 9.13261C126.367 7.99109 123.727 7.52734 117.913 7.52734ZM117.948 12.7712C119.732 12.7712 121.23 12.9496 122.015 13.2706C123.228 13.7344 123.264 14.3051 123.264 16.5882C123.264 20.1911 122.729 20.5478 117.948 20.5478C115.915 20.5478 114.488 20.3695 113.703 20.0128C112.562 19.549 112.562 19.0139 112.562 16.7665C112.562 13.1636 113.133 12.7712 117.948 12.7712Z" fill="white"/>
<path d="M117.916 7.53055C112.173 7.53055 109.426 7.99429 107.856 9.13581C106.18 10.3487 105.609 12.1323 105.609 16.092C105.609 21.0148 106.073 22.7628 107.642 24.047C109.248 25.3669 111.638 25.7949 117.952 25.7949C124.23 25.7949 126.549 25.3669 128.154 24.047C129.688 22.7628 130.187 21.0148 130.187 16.3417C130.187 12.0966 129.652 10.3844 127.94 9.13581C126.37 7.99429 123.731 7.53055 117.916 7.53055ZM117.952 12.7744C119.735 12.7744 121.234 12.9528 122.018 13.2738C123.231 13.7376 123.267 14.3083 123.267 16.5914C123.267 20.1943 122.732 20.551 117.952 20.551C115.918 20.551 114.491 20.3727 113.707 20.016C112.565 19.5522 112.565 19.0171 112.565 16.7698C112.565 13.1668 113.136 12.7744 117.952 12.7744Z" stroke="white" stroke-width="0.4324" stroke-miterlimit="2.61313" stroke-linecap="round" stroke-linejoin="round"/>
<path d="M131.997 8.20512V25.3636H138.953V18.0864C138.953 15.4823 139.06 14.7332 139.667 13.9127C140.273 13.1279 141.236 12.7712 142.663 12.7712C145.267 12.7712 145.66 13.1993 145.66 15.9461H152.259V14.5548C152.259 9.48934 150.262 7.52734 145.125 7.52734C141.593 7.52734 139.56 8.41916 138.454 10.4882H138.597V7.95542H131.997V8.20512Z" fill="white"/>
<path d="M131.998 8.20866V25.3672H138.954V18.09C138.954 15.4859 139.061 14.7368 139.668 13.9163C140.274 13.1315 141.237 12.7748 142.664 12.7748C145.268 12.7748 145.661 13.2028 145.661 15.9496H152.26V14.5584C152.26 9.49288 150.262 7.53088 145.126 7.53088C141.594 7.53088 139.561 8.4227 138.455 10.4917H138.598V7.95895H131.998V8.20866Z" stroke="white" stroke-width="0.4324" stroke-miterlimit="2.61313" stroke-linecap="round" stroke-linejoin="round"/>
<path d="M153.49 1.24971V25.3644H160.446V18.5509H161.624L168.401 25.3644H177.641L167.403 16.0538L176.499 7.95616H167.153L161.374 13.4497H160.446V1H153.49V1.24971Z" fill="white"/>
<path d="M153.49 1.2525V25.3672H160.446V18.5537H161.624L168.401 25.3672H177.641L167.403 16.0566L176.499 7.95895H167.153L161.374 13.4525H160.446V1.0028H153.49V1.2525Z" stroke="white" stroke-width="0.4324" stroke-miterlimit="2.61313" stroke-linecap="round" stroke-linejoin="round"/>
<path fill-rule="evenodd" clip-rule="evenodd" d="M193.774 18.0888L198.429 23.9658L199.161 24.8844C199.321 25.0806 199.285 25.3749 199.089 25.5265C199.009 25.5889 198.902 25.6246 198.804 25.6246H192.124C191.964 25.6246 191.83 25.5443 191.75 25.4284L191.616 25.2679L188.494 22.5211L185.364 25.2679L185.221 25.4551C185.132 25.5711 184.99 25.6246 184.856 25.6246H178.176C177.926 25.6246 177.721 25.4195 177.721 25.1698C177.721 25.0449 177.766 24.929 177.846 24.8487L178.551 23.9658L182.029 19.5602L183.465 17.7588C183.554 17.6428 183.688 17.5893 183.821 17.5893H187.54C187.799 17.5893 188.004 17.7855 188.004 18.0442V18.6774L189.805 16.7332L188.004 14.789V15.4222C188.004 15.6809 187.799 15.886 187.54 15.886H183.821C183.661 15.886 183.518 15.7968 183.438 15.6719L182.118 14.0042L178.551 9.50949L177.819 8.582C177.659 8.38581 177.695 8.10042 177.9 7.9399C177.98 7.87747 178.078 7.8418 178.176 7.8418H184.856C185.016 7.8418 185.168 7.92206 185.248 8.04691L185.364 8.19852L188.494 10.9453L191.625 8.19852L191.767 8.01124C191.857 7.90422 191.99 7.8418 192.124 7.8418H198.804C199.062 7.8418 199.268 8.04691 199.268 8.29662C199.268 8.42148 199.214 8.53741 199.143 8.61768L198.429 9.50949L193.756 15.4133C193.533 15.6898 193.346 15.9395 193.194 16.1535C193.016 16.3943 192.873 16.5905 192.748 16.7332C192.882 16.8759 193.025 17.0721 193.212 17.3307C193.355 17.5358 193.533 17.7766 193.774 18.0888Z" fill="#00A6D6"/>
<path d="M13.618 8.02149H19.0848C19.3346 8.02149 19.5486 8.22661 19.5486 8.48523V25.3495C19.5486 25.6081 19.3346 25.8132 19.0848 25.8132H13.618C13.3683 25.8132 13.1543 25.6081 13.1543 25.3495V25.2246C11.8255 25.9559 10.3986 26.3215 8.8914 26.3215C7.97283 26.3215 7.10777 26.2145 6.30513 26.0183C5.5025 25.8132 4.76229 25.51 4.08451 25.1087C3.41565 24.6984 2.81814 24.2169 2.3098 23.6639C1.79255 23.1021 1.36448 22.46 1.02559 21.7554C0.677779 21.0598 0.42807 20.3018 0.258626 19.4992C0.0802634 18.6965 0 17.8493 0 16.9486C0 15.1471 0.33889 13.5418 1.02559 12.1238C1.36448 11.4104 1.80147 10.7772 2.3098 10.2154C2.81814 9.65351 3.40673 9.17193 4.08451 8.7617C4.76229 8.36038 5.5025 8.04824 6.30513 7.85205C7.10777 7.64693 7.97283 7.54883 8.8914 7.54883C9.79213 7.54883 10.6661 7.6826 11.4955 7.94123C12.0663 8.11959 12.6192 8.36038 13.1543 8.6636V8.48523C13.1543 8.22661 13.3683 8.02149 13.618 8.02149Z" fill="white"/>
<path fill-rule="evenodd" clip-rule="evenodd" d="M4.5037 18.8557H7.58046L9.28383 17.1523H4.22723C4.24507 17.7677 4.34317 18.3385 4.5037 18.8557Z" fill="#7607BD"/>
<path fill-rule="evenodd" clip-rule="evenodd" d="M4.68201 14.5851L6.87587 16.779H9.28377L7.66067 15.1559L7.5269 15.031L7.47339 14.9686L5.663 13.1582C5.24385 13.5774 4.91388 14.05 4.68201 14.5851Z" fill="#7607BD"/>
<path fill-rule="evenodd" clip-rule="evenodd" d="M7.84827 11.8987V14.815L9.55163 16.5094V11.6758C8.93628 11.6758 8.37444 11.7471 7.84827 11.8987Z" fill="#7607BD"/>
<path fill-rule="evenodd" clip-rule="evenodd" d="M11.9682 12.0703L9.9259 14.1126V16.5116L13.4932 12.9443C13.0383 12.5697 12.53 12.2754 11.9682 12.0703Z" fill="#7607BD"/>
<path fill-rule="evenodd" clip-rule="evenodd" d="M14.9825 15.0742H11.8879L10.1934 16.7776H15.25C15.2411 16.1622 15.1519 15.6004 14.9825 15.0742Z" fill="#7607BD"/>
<path fill-rule="evenodd" clip-rule="evenodd" d="M14.7333 19.2927L12.593 17.1523H10.1851H10.194V17.1613L11.6298 18.5882L13.7166 20.675C14.1447 20.2648 14.4836 19.801 14.7333 19.2927Z" fill="#7607BD"/>
<path fill-rule="evenodd" clip-rule="evenodd" d="M11.6293 21.9512V19.1241L11.5936 19.0885L9.9259 17.4297V22.2544C10.5323 22.2277 11.1031 22.1296 11.6293 21.9512Z" fill="#7607BD"/>
<path fill-rule="evenodd" clip-rule="evenodd" d="M7.46505 21.9058L9.5519 19.8278V17.4199L5.95789 21.0139C6.40379 21.4063 6.91213 21.7006 7.46505 21.9058Z" fill="#7607BD"/>
</svg>
