<svg width="24" height="24" viewBox="0 0 24 24" fill="none" xmlns="http://www.w3.org/2000/svg">
<path d="M17.25 8.9999C17.25 10.0382 16.9421 11.0533 16.3652 11.9166C15.7883 12.78 14.9684 13.4529 14.0091 13.8503C13.0498 14.2476 11.9942 14.3516 10.9758 14.149C9.95738 13.9464 9.02191 13.4464 8.28769 12.7122C7.55346 11.978 7.05345 11.0425 6.85088 10.0241C6.6483 9.00572 6.75227 7.95012 7.14963 6.99081C7.54699 6.0315 8.2199 5.21156 9.08326 4.63468C9.94661 4.0578 10.9616 3.7499 12 3.7499C13.3924 3.7499 14.7277 4.30302 15.7123 5.28759C16.6969 6.27215 17.25 7.60751 17.25 8.9999ZM20.25 8.9999C20.2502 10.2151 19.9812 11.4153 19.4626 12.5143C18.9439 13.6133 18.1883 14.5838 17.25 15.3561V22.4999C17.25 22.6988 17.171 22.8896 17.0303 23.0302C16.8897 23.1709 16.6989 23.2499 16.5 23.2499C16.3837 23.2474 16.2689 23.2219 16.1625 23.1749L12 21.0843L7.8375 23.1749C7.72257 23.2317 7.595 23.258 7.46699 23.2514C7.33897 23.2449 7.21477 23.2056 7.10625 23.1374C6.99685 23.071 6.90652 22.9773 6.84409 22.8656C6.78165 22.7539 6.74924 22.6279 6.75 22.4999V15.3561C5.67744 14.4713 4.8459 13.3298 4.33265 12.0375C3.81939 10.7453 3.64107 9.34432 3.81423 7.96472C3.9874 6.58511 4.50644 5.27166 5.32315 4.14636C6.13985 3.02106 7.22771 2.12043 8.48568 1.52814C9.74365 0.935847 11.1309 0.671103 12.5186 0.758504C13.9063 0.845905 15.2493 1.28261 16.4231 2.02806C17.5968 2.77351 18.563 3.80351 19.2321 5.02239C19.9012 6.24127 20.2513 7.60947 20.25 8.9999ZM18.75 8.9999C18.75 7.66487 18.3541 6.35983 17.6124 5.2498C16.8707 4.13977 15.8165 3.2746 14.5831 2.76371C13.3497 2.25282 11.9925 2.11915 10.6831 2.3796C9.37377 2.64005 8.17103 3.28292 7.22703 4.22693C6.28302 5.17093 5.64015 6.37367 5.3797 7.68304C5.11925 8.99241 5.25292 10.3496 5.76381 11.583C6.2747 12.8164 7.13987 13.8706 8.2499 14.6123C9.35993 15.354 10.665 15.7499 12 15.7499C13.7894 15.7474 15.5049 15.0355 16.7702 13.7701C18.0356 12.5048 18.7475 10.7893 18.75 8.9999Z" fill="#7607BD"/>
</svg>
