<svg width="38" height="38" viewBox="0 0 38 38" fill="none" xmlns="http://www.w3.org/2000/svg">
<rect x="1" y="1" width="36" height="36" rx="18" fill="#D1FADF"/>
<path d="M28 18.1772V19.0052C27.9989 20.9459 27.3705 22.8344 26.2084 24.3888C25.0464 25.9432 23.413 27.0804 21.5518 27.6307C19.6907 28.1809 17.7015 28.1149 15.881 27.4423C14.0605 26.7697 12.5062 25.5266 11.4499 23.8985C10.3935 22.2704 9.89181 20.3444 10.0195 18.4078C10.1472 16.4713 10.8975 14.6278 12.1585 13.1525C13.4194 11.6772 15.1235 10.649 17.0166 10.2213C18.9096 9.79357 20.8902 9.98925 22.663 10.7792M28 11.8052L19 20.8142L16.3 18.1142" stroke="#039855" stroke-linecap="round" stroke-linejoin="round"/>
<rect x="1" y="1" width="36" height="36" rx="18" stroke="#ECFDF3" stroke-width="2"/>
</svg>
