<svg width="108" height="108" viewBox="0 0 108 108" fill="none" xmlns="http://www.w3.org/2000/svg">
<rect x="4" y="4" width="100" height="100" rx="50" fill="#D1FADF"/>
<path d="M79 51.7143V54.0143C78.9969 59.4054 77.2513 64.651 74.0233 68.9689C70.7954 73.2867 66.2582 76.4455 61.0884 77.9741C55.9186 79.5026 50.3931 79.3191 45.3362 77.4508C40.2792 75.5825 35.9616 72.1296 33.0274 67.607C30.0932 63.0844 28.6995 57.7345 29.0542 52.3551C29.4089 46.9757 31.493 41.8551 34.9957 37.757C38.4984 33.6589 43.232 30.8028 48.4905 29.6147C53.749 28.4266 59.2507 28.9702 64.175 31.1643M79 34.0143L54 59.0393L46.5 51.5393" stroke="#039855" stroke-width="4" stroke-linecap="round" stroke-linejoin="round"/>
<rect x="4" y="4" width="100" height="100" rx="50" stroke="#ECFDF3" stroke-width="8"/>
</svg>
