<svg width="45" height="45" viewBox="0 0 45 45" fill="none" xmlns="http://www.w3.org/2000/svg">
<path d="M45 22.5C45 34.9264 34.9264 45 22.5 45C10.0736 45 0 34.9264 0 22.5C0 10.0736 10.0736 0 22.5 0C34.9264 0 45 10.0736 45 22.5Z" fill="#7E00C4"/>
<path d="M25.1333 11C26.4267 11.0133 27.48 11.6792 28.0933 12.8779C28.2517 13.1942 28.4725 13.6562 28.7037 14.1436L28.9829 14.7329L29.12 15.0222L29.2533 15.3152C29.3067 15.4084 29.4 15.475 29.52 15.475C32.72 15.475 35.3333 18.0855 35.3333 21.2819V29.1931C35.3333 32.3896 32.72 35 29.52 35H14.48C11.2667 35 8.66666 32.3896 8.66666 29.1931V21.2819C8.66666 18.0855 11.2667 15.475 14.48 15.475C14.5867 15.475 14.6933 15.4218 14.7333 15.3152L14.8133 15.1554C15.1867 14.3696 15.64 13.4107 15.9067 12.8779C16.52 11.6792 17.56 11.0133 18.8533 11H25.1333ZM22 19.5372C20.6 19.5372 19.28 20.0832 18.28 21.0821C17.2933 22.081 16.7467 23.3862 16.76 24.7714C16.76 26.1698 17.3067 27.475 18.2933 28.4739C19.2933 29.4595 20.6 30.0056 22 30.0056C23.44 30.0056 24.7467 29.4195 25.6933 28.4739C26.64 27.5283 27.2267 26.2231 27.24 24.7714C27.24 23.3862 26.6933 22.0677 25.7067 21.0688C24.72 20.0832 23.4 19.5372 22 19.5372ZM22 21.535C22.8667 21.535 23.68 21.8679 24.2933 22.4806C24.9067 23.0932 25.24 23.9057 25.24 24.7714C25.2267 26.556 23.7867 28.0078 22 28.0078C21.1333 28.0078 20.32 27.6748 19.7067 27.0622C19.0933 26.4495 18.76 25.6371 18.76 24.7714V24.758C18.7467 23.919 19.08 23.1065 19.6933 22.4939C20.32 21.8679 21.1333 21.535 22 21.535ZM29.48 19.2175C28.8133 19.2175 28.28 19.7636 28.28 20.4295C28.28 21.0954 28.8133 21.6282 29.48 21.6282C30.1467 21.6282 30.6933 21.0954 30.6933 20.4295C30.6933 19.7636 30.1467 19.2175 29.48 19.2175Z" fill="white"/>
</svg>
