<svg width="187" height="32" viewBox="0 0 187 32" fill="none" xmlns="http://www.w3.org/2000/svg">
<path d="M20.504 7.75651V23.8426H27.0254V17.2543C27.0254 14.3448 27.0923 13.7763 27.8281 13.0071C28.5304 12.2713 29.5002 12.0372 31.674 12.0372C33.8813 12.0372 34.7842 12.2044 35.4196 12.8399C36.0551 13.4418 36.0885 13.8432 36.0885 16.3848V23.8426H42.6099V16.3848C42.6099 12.0372 42.242 10.6661 40.804 9.16112C39.3994 7.72307 37.259 7.12109 33.4465 7.12109C29.6005 7.12109 27.5605 7.95717 26.5572 9.93031H26.691V7.52241H20.504V7.75651Z" fill="#7507BD"/>
<path d="M20.5009 7.75763V23.8438H27.0223V17.2555C27.0223 14.3459 27.0891 13.7774 27.8249 13.0082C28.5272 12.2724 29.497 12.0383 31.6708 12.0383C33.8781 12.0383 34.781 12.2056 35.4165 12.841C36.0519 13.443 36.0853 13.8443 36.0853 16.3859V23.8438H42.6067V16.3859C42.6067 12.0383 42.2389 10.6672 40.8008 9.16224C39.3962 7.72419 37.2558 7.12221 33.4433 7.12221C29.5974 7.12221 27.5573 7.95829 26.5541 9.93143H26.6878V7.52353H20.5009V7.75763Z" stroke="#7507BD" stroke-width="0.4324" stroke-miterlimit="2.61313" stroke-linecap="round" stroke-linejoin="round"/>
<path d="M42.5051 7.75363L49.6954 23.8397H51.8692C50.9997 26.047 50.6987 26.348 48.6921 26.3145C47.7222 26.3145 47.6888 26.3145 47.0534 26.3814V30.8628C47.7557 30.9631 48.6586 30.9966 49.9295 30.9966C51.9695 30.9966 53.4744 30.6621 54.4443 30.0602C55.4476 29.4582 55.6148 29.0903 57.2535 25.6457L65.8484 7.51953H58.6581L53.5413 19.2915H54.1099L49.4947 7.51953H42.4048L42.5051 7.75363Z" fill="#7507BD"/>
<path d="M42.5066 7.75707L49.6969 23.8432H51.8707C51.0012 26.0504 50.7002 26.3514 48.6936 26.318C47.7238 26.318 47.6903 26.318 47.0549 26.3849V30.8662C47.7572 30.9666 48.6602 31 49.931 31C51.971 31 53.476 30.6656 54.4458 30.0636C55.4491 29.4616 55.6163 29.0937 57.255 25.6491L65.8499 7.52297H58.6596L53.5429 19.2949H54.1114L49.4962 7.52297H42.4063L42.5066 7.75707Z" stroke="#7507BD" stroke-width="0.4324" stroke-miterlimit="2.61313" stroke-linecap="round" stroke-linejoin="round"/>
<path d="M64.4318 7.75363L70.3846 23.8397H78.7119L81.9894 14.275H81.3874L84.5979 23.8397H93.0925L99.1457 7.51953H92.2229L88.4439 19.0908H89.0124L84.6648 7.51953H78.6451L74.3309 19.2915H74.8994L71.2207 7.51953H64.3314L64.4318 7.75363Z" fill="#7507BD"/>
<path d="M64.4286 7.75763L70.3814 23.8438H78.7088L81.9862 14.279H81.3842L84.5947 23.8438H93.0893L99.1425 7.52353H92.2198L88.4407 19.0948H89.0092L84.6616 7.52353H78.6419L74.3277 19.2955H74.8963L71.2175 7.52353H64.3282L64.4286 7.75763Z" stroke="#7507BD" stroke-width="0.4324" stroke-miterlimit="2.61313" stroke-linecap="round" stroke-linejoin="round"/>
<path d="M110.543 7.12109C105.159 7.12109 102.584 7.55585 101.112 8.62603C99.5404 9.7631 99.0053 11.4352 99.0053 15.1474C99.0053 19.7626 99.4401 21.4013 100.912 22.6052C102.417 23.8426 104.657 24.2439 110.577 24.2439C116.463 24.2439 118.636 23.8426 120.141 22.6052C121.579 21.4013 122.048 19.7626 122.048 15.3815C122.048 11.4018 121.546 9.79654 119.941 8.62603C118.469 7.55585 115.994 7.12109 110.543 7.12109ZM110.577 12.0372C112.249 12.0372 113.653 12.2044 114.389 12.5054C115.526 12.9402 115.56 13.4753 115.56 15.6156C115.56 18.9934 115.058 19.3278 110.577 19.3278C108.67 19.3278 107.333 19.1606 106.597 18.8262C105.527 18.3914 105.527 17.8898 105.527 15.7828C105.527 12.4051 106.062 12.0372 110.577 12.0372Z" fill="#7507BD"/>
<path d="M110.546 7.12324C105.162 7.12324 102.587 7.558 101.115 8.62818C99.5436 9.76524 99.0085 11.4374 99.0085 15.1496C99.0085 19.7647 99.4432 21.4034 100.915 22.6074C102.42 23.8448 104.66 24.2461 110.58 24.2461C116.466 24.2461 118.64 23.8448 120.145 22.6074C121.583 21.4034 122.051 19.7647 122.051 15.3837C122.051 11.404 121.549 9.79869 119.944 8.62818C118.472 7.558 115.998 7.12324 110.546 7.12324ZM110.58 12.0394C112.252 12.0394 113.657 12.2066 114.392 12.5076C115.529 12.9423 115.563 13.4774 115.563 15.6178C115.563 18.9955 115.061 19.33 110.58 19.33C108.674 19.33 107.336 19.1627 106.6 18.8283C105.53 18.3936 105.53 17.8919 105.53 15.785C105.53 12.4072 106.065 12.0394 110.58 12.0394Z" stroke="#7507BD" stroke-width="0.4324" stroke-miterlimit="2.61313" stroke-linecap="round" stroke-linejoin="round"/>
<path d="M123.747 7.75651V23.8426H130.269V17.0202C130.269 14.5789 130.369 13.8766 130.938 13.1074C131.506 12.3717 132.409 12.0372 133.747 12.0372C136.188 12.0372 136.556 12.4385 136.556 15.0137H142.743V13.7094C142.743 8.96046 140.87 7.12109 136.054 7.12109C132.744 7.12109 130.837 7.95717 129.801 9.89687H129.934V7.52241H123.747V7.75651Z" fill="#7507BD"/>
<path d="M123.748 7.75763V23.8438H130.27V17.0214C130.27 14.58 130.37 13.8777 130.938 13.1085C131.507 12.3728 132.41 12.0383 133.748 12.0383C136.189 12.0383 136.557 12.4397 136.557 15.0148H142.744V13.7105C142.744 8.96158 140.871 7.12221 136.055 7.12221C132.744 7.12221 130.838 7.95829 129.801 9.89799H129.935V7.52353H123.748V7.75763Z" stroke="#7507BD" stroke-width="0.4324" stroke-miterlimit="2.61313" stroke-linecap="round" stroke-linejoin="round"/>
<path d="M143.897 1.2341V23.8416H150.419V17.454H151.522L157.876 23.8416H166.538L156.94 15.113L165.468 7.5214H156.706L151.288 12.6716H150.419V1H143.897V1.2341Z" fill="#7507BD"/>
<path d="M143.897 1.23624V23.8438H150.419V17.4561H151.522L157.876 23.8438H166.538L156.94 15.1151L165.468 7.52353H156.706L151.288 12.6738H150.419V1.00214H143.897V1.23624Z" stroke="#7507BD" stroke-width="0.4324" stroke-miterlimit="2.61313" stroke-linecap="round" stroke-linejoin="round"/>
<path fill-rule="evenodd" clip-rule="evenodd" d="M181.663 17.0206L186.027 22.5303L186.713 23.3915C186.864 23.5754 186.83 23.8513 186.646 23.9935C186.571 24.052 186.471 24.0854 186.379 24.0854H180.116C179.966 24.0854 179.84 24.0102 179.765 23.9015L179.64 23.751L176.714 21.1759L173.779 23.751L173.645 23.9266C173.562 24.0353 173.428 24.0854 173.302 24.0854H167.04C166.806 24.0854 166.614 23.8931 166.614 23.659C166.614 23.542 166.656 23.4333 166.731 23.358L167.391 22.5303L170.652 18.4001L171.998 16.7112C172.082 16.6025 172.207 16.5524 172.333 16.5524H175.819C176.061 16.5524 176.254 16.7363 176.254 16.9788V17.5724L177.943 15.7497L176.254 13.9271V14.5207C176.254 14.7632 176.061 14.9555 175.819 14.9555H172.333C172.182 14.9555 172.048 14.8719 171.973 14.7548L170.736 13.1914L167.391 8.97753L166.706 8.10801C166.555 7.92407 166.589 7.65653 166.781 7.50603C166.856 7.44751 166.948 7.41406 167.04 7.41406H173.302C173.453 7.41406 173.595 7.48931 173.67 7.60636L173.779 7.74849L176.714 10.3236L179.648 7.74849L179.782 7.57292C179.866 7.47259 179.991 7.41406 180.116 7.41406H186.379C186.621 7.41406 186.813 7.60636 186.813 7.84046C186.813 7.95751 186.763 8.0662 186.696 8.14145L186.027 8.97753L181.646 14.5124C181.437 14.7715 181.262 15.0056 181.12 15.2063C180.952 15.432 180.819 15.616 180.702 15.7497C180.827 15.8835 180.961 16.0675 181.136 16.3099C181.27 16.5022 181.437 16.728 181.663 17.0206Z" fill="#00A6D6"/>
<path d="M12.7669 7.58375H17.892C18.1261 7.58375 18.3268 7.77604 18.3268 8.01851V23.8287C18.3268 24.0712 18.1261 24.2635 17.892 24.2635H12.7669C12.5328 24.2635 12.3321 24.0712 12.3321 23.8287V23.7117C11.0864 24.3972 9.74865 24.74 8.33568 24.74C7.47452 24.74 6.66353 24.6397 5.91106 24.4558C5.15859 24.2635 4.46465 23.9792 3.82923 23.603C3.20217 23.2184 2.642 22.7669 2.16544 22.2485C1.68052 21.7218 1.2792 21.1198 0.961488 20.4593C0.635418 19.8072 0.401315 19.0965 0.242462 18.3441C0.0752469 17.5916 0 16.7973 0 15.9529C0 14.264 0.31771 12.7591 0.961488 11.4297C1.2792 10.7608 1.68888 10.1672 2.16544 9.64049C2.642 9.11377 3.19381 8.66229 3.82923 8.27769C4.46465 7.90146 5.15859 7.60883 5.91106 7.42489C6.66353 7.23259 7.47452 7.14062 8.33568 7.14062C9.18012 7.14062 9.99948 7.26604 10.777 7.5085C11.3121 7.67571 11.8305 7.90146 12.3321 8.18572V8.01851C12.3321 7.77604 12.5328 7.58375 12.7669 7.58375Z" fill="#7D00C3"/>
<path fill-rule="evenodd" clip-rule="evenodd" d="M4.2222 17.7414H7.10666L8.70357 16.1445H3.96301C3.97973 16.7214 4.0717 17.2565 4.2222 17.7414Z" fill="white"/>
<path fill-rule="evenodd" clip-rule="evenodd" d="M4.3894 13.7362L6.44615 15.7929H8.70356L7.1819 14.2712L7.05649 14.1542L7.00632 14.0957L5.30909 12.3984C4.91613 12.7914 4.60678 13.2345 4.3894 13.7362Z" fill="white"/>
<path fill-rule="evenodd" clip-rule="evenodd" d="M7.35773 11.2168V13.9508L8.95463 15.5393V11.0078C8.37774 11.0078 7.85101 11.0747 7.35773 11.2168Z" fill="white"/>
<path fill-rule="evenodd" clip-rule="evenodd" d="M11.2202 11.3789L9.30554 13.2935V15.5426L12.6498 12.1983C12.2234 11.8471 11.7469 11.5712 11.2202 11.3789Z" fill="white"/>
<path fill-rule="evenodd" clip-rule="evenodd" d="M14.0461 14.1953H11.1449L9.55634 15.7922H14.2969C14.2885 15.2153 14.2049 14.6886 14.0461 14.1953Z" fill="white"/>
<path fill-rule="evenodd" clip-rule="evenodd" d="M13.8125 18.1511L11.8059 16.1445H9.54852H9.55688V16.1529L10.903 17.4906L12.8594 19.447C13.2607 19.0624 13.5784 18.6277 13.8125 18.1511Z" fill="white"/>
<path fill-rule="evenodd" clip-rule="evenodd" d="M10.9024 20.6413V17.9909L10.869 17.9574L9.30554 16.4023V20.9255C9.87407 20.9004 10.4092 20.8085 10.9024 20.6413Z" fill="white"/>
<path fill-rule="evenodd" clip-rule="evenodd" d="M6.99848 20.6L8.9549 18.6519V16.3945L5.58551 19.7639C6.00355 20.1318 6.48011 20.4077 6.99848 20.6Z" fill="white"/>
</svg>
