<svg width="24" height="30" viewBox="0 0 24 30" fill="none" xmlns="http://www.w3.org/2000/svg">
<path d="M20 11.3334C20 9.21168 19.1571 7.17685 17.6568 5.67656C16.1566 4.17627 14.1217 3.33341 12 3.33341C9.87826 3.33341 7.84343 4.17627 6.34314 5.67656C4.84284 7.17685 3.99999 9.21168 3.99999 11.3334V22.0001H20V11.3334ZM22.6667 22.8894L23.2 23.6001C23.2743 23.6991 23.3195 23.8169 23.3306 23.9402C23.3417 24.0635 23.3183 24.1875 23.2629 24.2982C23.2076 24.409 23.1225 24.5021 23.0171 24.5672C22.9118 24.6323 22.7905 24.6667 22.6667 24.6667H1.33332C1.20952 24.6667 1.08815 24.6323 0.982836 24.5672C0.877519 24.5021 0.792407 24.409 0.737039 24.2982C0.68167 24.1875 0.658232 24.0635 0.669351 23.9402C0.680469 23.8169 0.725705 23.6991 0.79999 23.6001L1.33332 22.8894V11.3334C1.33332 8.50444 2.45713 5.79133 4.45752 3.79094C6.45791 1.79055 9.17101 0.666748 12 0.666748C14.829 0.666748 17.5421 1.79055 19.5425 3.79094C21.5428 5.79133 22.6667 8.50444 22.6667 11.3334V22.8894ZM8.66666 26.0001H15.3333C15.3333 26.8841 14.9821 27.732 14.357 28.3571C13.7319 28.9822 12.884 29.3334 12 29.3334C11.1159 29.3334 10.2681 28.9822 9.64297 28.3571C9.01785 27.732 8.66666 26.8841 8.66666 26.0001Z" fill="#1D2939"/>
</svg>
