<svg width="19" height="20" viewBox="0 0 19 20" fill="none" xmlns="http://www.w3.org/2000/svg">
<path d="M12.8283 5.75884L7.17229 11.4158C7.07678 11.5081 7.0006 11.6184 6.94819 11.7404C6.89578 11.8624 6.86819 11.9937 6.86704 12.1264C6.86588 12.2592 6.89118 12.3909 6.94147 12.5138C6.99175 12.6367 7.066 12.7483 7.15989 12.8422C7.25378 12.9361 7.36544 13.0104 7.48833 13.0607C7.61123 13.1109 7.74291 13.1362 7.87569 13.1351C8.00847 13.1339 8.13969 13.1064 8.26169 13.0539C8.3837 13.0015 8.49404 12.9254 8.58629 12.8298L14.2433 7.17384C14.8059 6.61118 15.122 5.84806 15.122 5.05234C15.122 4.25662 14.8059 3.4935 14.2433 2.93084C13.6806 2.36818 12.9175 2.05209 12.1218 2.05209C11.3261 2.05209 10.5629 2.36818 10.0003 2.93084L4.34329 8.58784C3.86936 9.04997 3.49192 9.6016 3.23284 10.2107C2.97377 10.8199 2.83823 11.4744 2.83408 12.1363C2.82994 12.7982 2.95727 13.4544 3.20868 14.0667C3.4601 14.6791 3.83061 15.2354 4.2987 15.7034C4.7668 16.1715 5.32317 16.5419 5.93554 16.7932C6.54791 17.0445 7.20409 17.1718 7.86602 17.1675C8.52795 17.1633 9.18245 17.0277 9.79155 16.7685C10.4006 16.5094 10.9522 16.1318 11.4143 15.6578L17.0713 10.0018L18.4853 11.4158L12.8283 17.0728C12.1782 17.7229 11.4065 18.2385 10.5572 18.5903C9.70789 18.9421 8.79759 19.1232 7.87829 19.1232C6.95899 19.1232 6.04869 18.9421 5.19937 18.5903C4.35004 18.2385 3.57833 17.7229 2.92829 17.0728C2.27824 16.4228 1.7626 15.6511 1.4108 14.8018C1.059 13.9524 0.87793 13.0421 0.87793 12.1228C0.87793 11.2035 1.059 10.2932 1.4108 9.44392C1.7626 8.5946 2.27824 7.82288 2.92829 7.17284L8.58629 1.51684C9.5293 0.60605 10.7923 0.102078 12.1033 0.11347C13.4143 0.124862 14.6683 0.650707 15.5954 1.57775C16.5224 2.50479 17.0483 3.75885 17.0597 5.06983C17.071 6.38082 16.5671 7.64383 15.6563 8.58684L10.0003 14.2458C9.72162 14.5244 9.39081 14.7454 9.02674 14.8962C8.66267 15.0469 8.27248 15.1245 7.87843 15.1244C7.48439 15.1244 7.09421 15.0467 6.73018 14.8959C6.36615 14.7451 6.03539 14.524 5.75679 14.2453C5.47819 13.9667 5.2572 13.6359 5.10645 13.2718C4.9557 12.9077 4.87813 12.5175 4.87818 12.1235C4.87823 11.7294 4.95588 11.3393 5.10672 10.9752C5.25756 10.6112 5.47862 10.2804 5.75729 10.0018L11.4143 4.34484L12.8283 5.75884Z" fill="#98A2B3"/>
</svg>
